<?xml version="1.0" encoding="UTF-8"?>
<svg id="Layer_2" data-name="Layer 2" xmlns="http://www.w3.org/2000/svg" viewBox="0 0 34.91 35.64">
  <defs>
    <style>
      .cls-1 {
        fill: #d96038;
      }
    </style>
  </defs>
  <g id="Layer_1-2" data-name="Layer 1">
    <g>
      <path class="cls-1" d="M22.01,0c.51,0,1.02.23,1.36.66.6.75.47,1.84-.28,2.44L4.53,17.82l18.56,14.72c.75.6.88,1.69.28,2.44-.6.75-1.69.88-2.44.28L.66,19.18c-.42-.33-.66-.83-.66-1.36s.24-1.03.66-1.36L20.93.38c.32-.25.7-.38,1.08-.38Z"/>
      <path class="cls-1" d="M33.17,0c.51,0,1.02.23,1.36.66.6.75.47,1.84-.28,2.44l-18.56,14.72,18.56,14.72c.75.6.88,1.69.28,2.44-.6.75-1.69.88-2.44.28L11.82,19.18c-.42-.33-.66-.83-.66-1.36s.24-1.03.66-1.36L32.09.38c.32-.25.7-.38,1.08-.38Z"/>
    </g>
  </g>
</svg>