<?xml version="1.0" encoding="UTF-8"?>
<svg id="Layer_2" data-name="Layer 2" xmlns="http://www.w3.org/2000/svg" viewBox="0 0 70.11 57.91">
  <defs>
    <style>
      .cls-1 {
        fill: #ee3c23;
        stroke: #ee3c23;
        stroke-linecap: round;
        stroke-linejoin: round;
        stroke-width: .56px;
      }
    </style>
  </defs>
  <g id="Layer_1-2" data-name="Layer 1">
    <path class="cls-1" d="M19.25,18.59c5.05,2.58,10.68,3.42,15.21,7.09.23.19.25.74.35,1.08-.6,1.36-1.36,1.2-2.14,1.06-9.1-1.59-18.21-3.16-27.31-4.77-1.19-.21-2.34-.58-3.47-.98-1.05-.38-1.63-1.31-1.59-2.84.03-1.57.81-2.61,1.81-3.43.64-.53,1.35-.9,2.04-1.28C11.82,10.25,19.51,6,27.21,1.77c.95-.52,1.92-1.07,2.89-1.34.76-.21,1.62-.21,2.3.06,1.7.68,1.7,2.81.01,4.34-.69.63-1.5,1.05-2.27,1.52-4.52,2.76-9.04,5.5-13.56,8.58,2.41-.2,4.82-.42,7.22-.59,11.84-.83,23.42-.26,34.49,2.93,3.16.9,6.18,2.13,8.65,4.62,3.81,3.84,3.87,10.02.14,15.7-2.82,4.29-6.37,7.24-10.2,9.35-3.53,1.95-7.15,3.77-10.77,4.99-10.08,3.4-20.18,5.49-30.19,5.7-3.87.08-7.67-.39-11.49-.7-1.09-.09-2.3-.15-2.73-1.72.57-1.67,1.68-1.41,2.59-1.58,4.73-.92,9.46-1.63,14.19-2.66,7.95-1.73,15.89-3.48,23.83-5.56,4.83-1.26,9.6-3.51,14.14-6.72,1.82-1.28,3.61-2.83,5.18-4.61,2.35-2.66,2.44-4.67.38-6.74-1.19-1.2-2.61-2.11-4.05-2.87-5.47-2.92-11.5-4.18-17.61-4.9-6.45-.76-13.04-.81-19.58-1.14-.49-.03-1.01.11-1.51.17h0Z"/>
  </g>
</svg>