<?xml version="1.0" encoding="UTF-8"?>
<svg id="Layer_2" data-name="Layer 2" xmlns="http://www.w3.org/2000/svg" viewBox="0 0 62.87 47.56">
  <defs>
    <style>
      .cls-1 {
        fill: #fff;
      }
    </style>
  </defs>
  <g id="Layer_1-2" data-name="Layer 1">
    <path class="cls-1" d="M57.81,47.56H5.08c-1.36,0-2.63-.53-3.59-1.49-.96-.96-1.49-2.24-1.49-3.59V12.37c0-1.27.47-2.48,1.33-3.42.83-.93,2-1.51,3.27-1.64h.14s12.86,0,12.86,0l.76-3.87c.18-.98.7-1.86,1.47-2.47.72-.62,1.68-.97,2.67-.97h17.87c.98,0,1.91.34,2.68.98.74.61,1.26,1.48,1.46,2.45l.74,3.88h13c1.27.13,2.44.71,3.29,1.64.85.93,1.32,2.14,1.32,3.42v30.12c0,1.36-.53,2.63-1.49,3.59-.96.96-2.23,1.49-3.57,1.49ZM4.79,9.91c-.6.07-1.15.35-1.52.77-.31.34-.67.91-.67,1.69v30.12c0,.66.26,1.29.74,1.77.44.46,1.07.72,1.74.72h52.74c.63,0,1.27-.27,1.75-.73.45-.45.7-1.08.7-1.75V12.37c0-.63-.22-1.22-.64-1.69-.39-.42-.96-.71-1.56-.77h-14.94s-.21-1.04-.21-1.04l-.95-4.94c-.08-.37-.29-.71-.58-.96-.28-.24-.63-.36-1.01-.36h-17.87c-.39,0-.75.13-.99.35-.24.2-.52.52-.6.97l-1.18,5.99H4.79ZM31.44,42.42c-1.04,0-2-.09-2.93-.29-.93-.17-1.88-.46-2.8-.84l-3.91-1.7h.88c-.55-.4-1.09-.85-1.59-1.33h-.01l-.25-.24c-.71-.74-1.32-1.48-1.85-2.27-.34-.52-.65-1.05-.94-1.63h-.04l-.4-.98c-.36-.84-.65-1.79-.85-2.79-.2-1.03-.29-1.99-.29-2.93s.09-1.89.29-2.92c.21-.99.5-1.94.86-2.82l.19-.46c.41-.84.78-1.5,1.18-2.11.58-.86,1.2-1.62,1.86-2.28l.25-.23c.57-.56,1.24-1.1,2.02-1.65.51-.34,1.05-.65,1.66-.95v-.03l.95-.41c.89-.37,1.83-.66,2.8-.86,2.11-.4,3.77-.39,5.85,0,.98.2,1.89.48,2.82.86l.46.19c.88.42,1.55.79,2.13,1.18.77.52,1.44,1.07,2.05,1.67l.24.22c.65.65,1.27,1.42,1.85,2.27.36.55.68,1.1.96,1.66h.02l.41.91c.39.95.68,1.9.85,2.83.19.9.29,1.89.29,2.91s-.1,2.01-.29,2.93c-.17.94-.45,1.89-.84,2.81l-.21.48c-.32.7-.7,1.38-1.18,2.1-.54.8-1.14,1.54-1.85,2.27l-.26.24c-.66.64-1.35,1.19-2.03,1.64-.54.36-1.09.68-1.65.95v.03l-.94.41c-.95.4-1.88.67-2.82.84-.91.19-1.87.29-2.91.29ZM22.91,36.42c.5.48,1.06.92,1.65,1.33.75.49,1.45.85,2.12,1.12l.32.13c.66.26,1.32.45,2.02.59,1.53.32,3.29.32,4.82,0,.71-.14,1.39-.33,2.09-.59l.22-.11c.72-.29,1.41-.65,2.17-1.14.68-.46,1.31-.98,1.87-1.54.58-.58,1.1-1.21,1.57-1.9.45-.68.84-1.42,1.12-2.12l.13-.32c.25-.64.45-1.31.59-2,.16-.79.24-1.61.24-2.43s-.08-1.62-.24-2.41c-.14-.73-.34-1.42-.59-2.05l-.11-.23c-.28-.72-.65-1.43-1.14-2.19-.41-.61-.86-1.17-1.35-1.68l-.21-.19c-.56-.56-1.19-1.08-1.88-1.54-.65-.44-1.34-.81-2.13-1.15l-.3-.12c-.65-.26-1.32-.45-2.02-.59-1.83-.33-3.04-.32-4.84,0-.69.13-1.36.33-2.02.59l-.31.12c-.77.32-1.47.7-2.12,1.14-.69.47-1.32.99-1.88,1.54-.56.56-1.08,1.19-1.54,1.88-.45.65-.82,1.35-1.14,2.15l-.1.27c-.28.7-.48,1.39-.61,2.05-.16.79-.24,1.6-.24,2.41s.08,1.64.24,2.43c.15.73.35,1.41.59,2.03l.12.27c.35.85.73,1.54,1.14,2.13.47.7.99,1.34,1.55,1.89l.23.24ZM31.44,37.97c-.72,0-1.42-.07-2.07-.21-.76-.15-1.39-.34-1.97-.59-.59-.23-1.21-.57-1.81-.98-.63-.43-1.15-.86-1.59-1.32-.55-.55-.97-1.06-1.32-1.6-.35-.51-.67-1.11-.97-1.8-.27-.66-.47-1.32-.59-1.99-.14-.66-.2-1.34-.2-2.06s.07-1.37.2-2.06c.13-.64.32-1.28.58-1.96.29-.68.61-1.27.99-1.82.37-.57.83-1.12,1.34-1.61.51-.53,1.1-.98,1.55-1.31.68-.44,1.27-.75,1.85-.98.62-.26,1.29-.47,1.96-.6,1.42-.25,2.73-.24,4.11,0,.69.14,1.36.34,2,.62.56.22,1.17.54,1.8.95h.02c.6.43,1.13.86,1.6,1.34.51.51.95,1.05,1.32,1.61.36.54.68,1.12.96,1.78.27.68.47,1.35.59,1.99.14.69.21,1.36.21,2.06s-.07,1.4-.21,2.07c-.12.65-.32,1.32-.59,1.97-.3.7-.62,1.29-.98,1.82-.33.5-.73.99-1.3,1.59-.52.52-1.05.95-1.63,1.33-.58.4-1.19.73-1.81.98-.56.24-1.19.43-1.96.58-.65.14-1.35.2-2.07.2ZM31.44,19.5c-.59,0-1.09.05-1.53.15-.52.1-1.01.24-1.52.45-.43.17-.86.4-1.36.73-.36.24-.75.56-1.22,1.01-.35.35-.67.74-.98,1.2-.28.43-.53.89-.72,1.35-.19.49-.35,1-.46,1.5-.09.44-.13.95-.13,1.54s.05,1.12.13,1.57c.11.5.26,1,.46,1.47.19.47.43.93.72,1.35.3.46.62.86,1,1.23.46.43.85.75,1.21,1,.49.32.92.55,1.34.72.53.21,1,.35,1.49.44,1.1.21,2.09.2,3.14,0,.5-.09.99-.24,1.46-.44.47-.19.92-.43,1.36-.72.41-.27.81-.6,1.21-1,.41-.41.74-.81,1.01-1.22.26-.38.49-.81.74-1.38.19-.46.34-.95.43-1.45.11-.53.16-1.07.16-1.58s-.05-1.02-.16-1.55c-.09-.5-.23-.99-.44-1.5-.17-.36-.41-.88-.73-1.36-.27-.4-.62-.81-1.01-1.2h0c-.4-.4-.8-.73-1.2-.99-.45-.31-.9-.55-1.36-.73-.47-.2-.96-.35-1.5-.47-.44-.08-.97-.13-1.55-.13ZM9.7,18.12c-1.03,0-2.01-.41-2.75-1.15-.72-.72-1.13-1.72-1.13-2.73s.41-2.02,1.13-2.73c1.48-1.48,4-1.49,5.48,0,.73.7,1.13,1.67,1.13,2.73s-.41,2.03-1.14,2.74c-.73.73-1.7,1.14-2.72,1.14ZM9.7,12.95c-.34,0-.66.13-.88.37-.19.19-.4.49-.4.92s.21.73.38.9c.44.47,1.33.47,1.8,0,.23-.25.36-.57.36-.9,0-.42-.2-.73-.37-.91-.17-.17-.47-.37-.89-.37Z"/>
  </g>
</svg>