<?xml version="1.0" encoding="UTF-8"?>
<svg id="Layer_2" data-name="Layer 2" xmlns="http://www.w3.org/2000/svg" viewBox="0 0 62.87 47.56">
  <defs>
    <style>
      .cls-1 {
        fill: none;
        stroke: #fff;
        stroke-miterlimit: 10;
        stroke-width: 1.55px;
      }
    </style>
  </defs>
  <g id="Layer_1-2" data-name="Layer 1">
    <path class="cls-1" d="M4.74,9.13c-.82.08-1.56.46-2.06,1.03-.53.59-.86,1.34-.86,2.21v30.12c0,.9.38,1.72.97,2.31.57.59,1.38.94,2.29.94h52.74c.88,0,1.7-.38,2.29-.94.59-.59.94-1.41.94-2.31V12.37c0-.86-.32-1.62-.84-2.21-.52-.57-1.26-.94-2.06-1.03h-14.39l-.09-.42-.95-4.93c-.13-.57-.42-1.05-.84-1.41-.42-.36-.94-.55-1.51-.55h-17.87c-.57,0-1.11.19-1.51.55-.42.36-.74.84-.84,1.41l-.97,4.93-.09.42H4.74ZM1.91,9.47c.69-.78,1.68-1.28,2.77-1.39h13.57l.88-4.49c.15-.82.59-1.53,1.19-2.02.59-.51,1.37-.8,2.19-.8h17.87c.82,0,1.57.29,2.18.8.59.48,1.03,1.2,1.2,2.02l.86,4.49h13.56c1.09.11,2.08.61,2.79,1.39.69.76,1.11,1.76,1.11,2.9v30.12c0,1.2-.48,2.27-1.26,3.05-.78.78-1.85,1.26-3.03,1.26H5.08c-1.19,0-2.27-.48-3.04-1.26-.78-.78-1.26-1.85-1.26-3.05V12.37c0-1.13.44-2.14,1.13-2.9h0ZM31.44,13.21c.94,0,1.87.11,2.77.28.92.19,1.8.46,2.66.82l.46.19h0c.69.34,1.37.69,2,1.11.77.53,1.49,1.11,2.14,1.79h.02c.65.65,1.24,1.39,1.76,2.16.42.63.8,1.3,1.11,2h.02l.19.44c.36.86.63,1.76.8,2.67.19.9.28,1.83.28,2.77s-.09,1.87-.28,2.77c-.17.92-.44,1.83-.8,2.67l-.21.49h0c-.32.69-.69,1.34-1.11,1.97-.53.78-1.11,1.49-1.76,2.16h-.02c-.65.65-1.37,1.26-2.14,1.77-.63.42-1.3.8-2,1.11v.02l-.46.19c-.86.36-1.74.63-2.66.8-.91.19-1.83.27-2.77.27s-1.87-.08-2.77-.27c-.9-.17-1.8-.44-2.66-.8l-.48-.21h.02c-.69-.31-1.36-.69-1.99-1.11-.76-.5-1.49-1.11-2.14-1.77h-.02c-.65-.67-1.24-1.38-1.76-2.16-.42-.63-.78-1.28-1.09-1.97h-.02l-.19-.49c-.36-.84-.63-1.74-.82-2.67-.17-.9-.28-1.83-.28-2.77s.1-1.87.28-2.77c.19-.9.46-1.81.82-2.67l.19-.46h0c.34-.69.69-1.34,1.11-1.98.52-.78,1.11-1.51,1.76-2.16h.02c.65-.67,1.38-1.26,2.14-1.79.63-.42,1.3-.78,1.99-1.09v-.02l.46-.19c.86-.36,1.76-.63,2.66-.82.91-.17,1.83-.28,2.77-.28h0ZM34,14.51c-.82-.15-1.68-.25-2.56-.25s-1.75.11-2.56.25c-.76.15-1.47.36-2.16.63l-.32.13c-.8.34-1.55.73-2.27,1.22-.71.48-1.38,1.03-1.99,1.64h0c-.61.61-1.15,1.28-1.64,2-.49.71-.88,1.47-1.22,2.29l-.11.27c-.27.69-.5,1.43-.65,2.18-.17.84-.25,1.7-.25,2.56s.09,1.74.25,2.58c.15.73.36,1.47.63,2.16l.13.29c.33.8.73,1.58,1.22,2.27.48.71,1.03,1.39,1.64,2h0v.02h0c.61.61,1.28,1.16,1.99,1.64.72.46,1.47.88,2.27,1.2l.32.13c.69.27,1.41.48,2.16.63.82.17,1.68.25,2.56.25s1.74-.08,2.56-.25c.77-.15,1.49-.36,2.21-.63l.27-.13c.8-.32,1.55-.73,2.26-1.2.72-.48,1.39-1.03,2-1.64h0l.02-.02h0c.61-.61,1.15-1.28,1.64-2,.46-.69.88-1.47,1.2-2.27l.13-.31c.27-.69.48-1.41.63-2.14.17-.84.25-1.7.25-2.58s-.09-1.72-.25-2.56c-.15-.76-.36-1.49-.63-2.18l-.13-.27c-.31-.82-.74-1.58-1.2-2.29-.48-.71-1.03-1.39-1.64-2h-.02c-.61-.61-1.28-1.15-2-1.64-.71-.48-1.47-.88-2.26-1.22l-.31-.13c-.7-.27-1.41-.48-2.16-.63h0ZM9.7,11.13c.86,0,1.62.36,2.18.92.57.55.91,1.32.91,2.18s-.34,1.64-.91,2.18c-.56.57-1.32.92-2.18.92s-1.64-.36-2.2-.92c-.55-.55-.9-1.32-.9-2.18s.36-1.64.9-2.18c.57-.57,1.34-.92,2.2-.92h0ZM11.15,12.79c-.37-.38-.88-.61-1.45-.61s-1.09.23-1.45.61c-.38.38-.61.88-.61,1.45s.23,1.07.61,1.45c.36.38.88.59,1.45.59s1.07-.21,1.45-.59c.36-.38.59-.88.59-1.45s-.23-1.07-.59-1.45h0ZM37.59,21.27c-.4-.4-.84-.78-1.32-1.09-.46-.32-.96-.59-1.49-.8-.5-.21-1.05-.38-1.61-.51-.55-.1-1.14-.15-1.72-.15s-1.15.04-1.7.17c-.57.1-1.11.27-1.64.48-.53.21-1.01.48-1.49.8-.46.31-.9.69-1.33,1.09-.42.42-.78.86-1.09,1.32-.32.48-.59.99-.8,1.49-.21.53-.38,1.07-.5,1.64-.11.55-.15,1.11-.15,1.7s.04,1.18.15,1.72c.12.57.29,1.11.5,1.62.21.53.48,1.03.8,1.49.32.48.67.92,1.09,1.34.42.4.86.78,1.33,1.09.48.31.97.59,1.49.8.52.21,1.05.38,1.64.48.55.1,1.11.17,1.7.17s1.18-.06,1.72-.17c.57-.11,1.11-.27,1.61-.48.53-.21,1.03-.48,1.49-.8.48-.32.92-.7,1.32-1.09.42-.42.8-.86,1.11-1.34.32-.46.57-.96.8-1.49.21-.51.38-1.05.48-1.62.11-.55.17-1.13.17-1.72s-.06-1.15-.17-1.7c-.1-.57-.27-1.11-.48-1.64-.23-.5-.48-1.01-.8-1.49-.31-.46-.69-.9-1.11-1.32h0ZM36.85,19.3c.55.38,1.03.78,1.49,1.24.44.44.86.94,1.22,1.49.36.52.65,1.07.9,1.66.24.59.42,1.2.54,1.83.13.63.19,1.26.19,1.91s-.06,1.3-.19,1.91c-.12.65-.31,1.26-.54,1.83-.25.59-.54,1.15-.9,1.68-.36.55-.78,1.03-1.22,1.49-.46.46-.95.86-1.49,1.22-.52.36-1.09.67-1.68.9-.59.25-1.2.42-1.83.55-.61.13-1.26.19-1.91.19s-1.3-.06-1.91-.19c-.63-.13-1.24-.29-1.83-.55-.59-.23-1.15-.55-1.68-.9-.52-.36-1.03-.76-1.47-1.22-.46-.46-.88-.94-1.24-1.49-.36-.53-.65-1.09-.91-1.68-.23-.57-.42-1.18-.55-1.83-.13-.61-.19-1.24-.19-1.91s.06-1.28.19-1.91c.13-.63.32-1.24.55-1.83.25-.59.55-1.13.91-1.66.36-.55.78-1.05,1.24-1.49.44-.46.95-.86,1.47-1.24.53-.34,1.1-.65,1.68-.88.59-.25,1.2-.44,1.83-.57.61-.11,1.26-.17,1.91-.17s1.3.06,1.91.17c.63.13,1.24.32,1.83.57.59.23,1.16.55,1.68.88h0Z"/>
  </g>
</svg>