<?xml version="1.0" encoding="UTF-8"?>
<svg id="Layer_2" data-name="Layer 2" xmlns="http://www.w3.org/2000/svg" viewBox="0 0 60.92 66.35">
  <defs>
    <style>
      .cls-1 {
        fill: #ee3c23;
        stroke: #ee3c23;
        stroke-linecap: round;
        stroke-linejoin: round;
        stroke-width: .56px;
      }

      .cls-2 {
        fill: #fdeaac;
      }
    </style>
  </defs>
  <g id="Layer_1-2" data-name="Layer 1">
    <g>
      <path class="cls-2" d="M53.97,20.56c-.93-.62-1.86-1.24-2.78-1.86-.35-.24-.71-.42-1.06-.57-6.89-10.09-14.86-16.41-25.71-11.01-3.2,1.59-6.1,4.97-7.58,8.44-2.37,2.31-4.84,4.53-7.47,6.54-3.12,2.39-3.28,6.32-1.05,8.58-.09.5-.17,1-.24,1.51-.28,2.06-.25,3.93.01,5.74-1.83,2.65-.35,6.04-.19,9.61.4,8.93,5.2,17.99,14.98,17.3,2.05-.15,4.06-.15,6.09-.01.19.04.39.07.58.11,5.64,1.13,10.66.42,15.26-3.13,4.3-3.33,3.96-8.3,3.93-13.84-.03-5.6,2.76-12.08,1.24-17.52.16,0,1.71-1.35,1.87-1.35,5.77.15,6.46-5.62,2.12-8.53Z"/>
      <path class="cls-1" d="M1.52,31.58c.72.4,1.48.37,2.25.27.72-.06,1.45-.1,2.18-.14.03.82-.02,1.64-.04,2.46-.03,1.02-.07,2.05-.12,3.07-.04,1.02-.1,2.03-.12,3.05-.02,1.05-.02,2.1-.05,3.14-.07,2.04-.16,4.08-.12,6.13.02.91.11,1.82.22,2.72.13,1.04.24,2.08.35,3.13.1.91.28,1.8.42,2.69.04.34.08.68.15,1.02.07.34.15.68.21,1.03.09.49.2.98.28,1.47.05.42.1.84.16,1.26.07.48.2.96.48,1.37,1.28,1.84,3.73,1.81,5.75,1.82,2.07,0,4.14-.04,6.22-.08,1.05-.02,2.1-.03,3.15-.04,1,0,1.99-.04,2.99,0,.99.03,1.97.11,2.97.12,1.18,0,2.37.02,3.55.02,2.05,0,4.11-.06,6.16-.16,1-.05,2.01-.12,3.01-.15,1.07-.04,2.14-.13,3.2-.24.51-.05,1.01-.1,1.51-.12.48-.02.96.07,1.44.1.32.02.67-.07.99-.13.13-.03.25-.06.38-.11.4-.15.76-.31,1.06-.63.23-.24.42-.5.57-.78.39-.71.5-1.54.54-2.34.06-.98.07-1.95.02-2.93-.06-1.04-.02-2.07-.01-3.11.02-2.02.16-4.03.12-6.05-.02-.98-.08-1.96-.06-2.94.01-1-.01-2,.03-3.01.04-1.02.22-2.03.25-3.05.04-1,.02-2.01,0-3.01-.06-1.91-.12-3.83-.15-5.74,0-.44-.04-.89-.05-1.34.55-.16,1.1-.32,1.66-.47.36.01.71.03,1.07.04.99.03,1.97.05,2.96.05.5,0,1.07,0,1.55-.12.09-.03.19-.05.28-.08.37-.1.68-.29.95-.55.31-.25.61-.65.68-1.05.08-.44.14-.8.02-1.24-.09-.33-.34-.79-.59-1.02-.2-.18-.41-.33-.63-.49-1.34-1.15-2.39-2.61-3.53-3.95-.6-.71-1.17-1.44-1.77-2.15-.56-.67-1.2-1.28-1.78-1.93-.63-.71-1.29-1.4-1.94-2.09-.66-.7-1.27-1.43-1.95-2.11-.62-.62-1.19-1.3-1.77-1.95-.63-.7-1.26-1.39-1.92-2.07-1.6-1.66-3.18-3.34-4.84-4.95-.36-.35-.76-.63-1.13-.96-.54-.48-1.07-.94-1.65-1.38-.44-.34-.92-.61-1.44-.8-.14-.1-.28-.2-.42-.29-.13-.09-.27-.17-.42-.23-.28-.16-.58-.24-.9-.24-.08,0-.15-.01-.22-.01-.5,0-.93.21-1.39.44-1.69.84-3.19,2-4.67,3.15.01-.01.03-.02.04-.03-.58.45-1.15.91-1.73,1.37-1.54,1.15-3.01,2.39-4.48,3.63-.76.64-1.49,1.32-2.23,1.98-.31.27-.66.5-.98.77-.41.35-.81.69-1.21,1.05-.69.63-1.4,1.25-2.09,1.87-.75.67-1.49,1.35-2.26,2-.73.61-1.4,1.29-2.11,1.93-.71.63-1.42,1.26-2.12,1.91-.39.36-.78.72-1.16,1.09-.36.35-.71.73-1.09,1.07-.43.39-.85.78-1.3,1.15-.36.3-.72.58-1.06.9-.82.78-1.66,1.56-2.39,2.42-.21.25-.4.51-.59.78-.17.25-.31.51-.4.8-.12.25-.17.51-.16.79-.11.9.46,1.79,1.23,2.21ZM34.26,61.56c-2.02.02-4.04-.03-6.05-.09-1.01-.03-2.02-.01-3.03,0-.93.01-1.86.02-2.79,0-.03,0-.05,0-.08,0-.02-.54,0-1.07,0-1.61,0-.96.05-1.92.14-2.88.18-1.25.38-2.5.49-3.76.12-1.34.32-2.66.46-4,.08-.58.16-1.16.19-1.75.03-.54.06-1.08.1-1.63.04-.24.08-.49.13-.73.14-.03.28-.08.42-.1,1.27-.12,2.54-.1,3.81-.11.61,0,1.23-.05,1.84-.06.51,0,1,.03,1.51.09.38.06.75.13,1.13.2.46.09.93.15,1.4.21.03,0,.06.01.09.02.03.19.06.38.1.56.06.31.12.62.17.93-.02-.17-.05-.35-.07-.52.06.42.11.84.17,1.26.11.97.18,1.94.29,2.91.12,1.06.22,2.12.3,3.18.07,1.02.16,2.05.22,3.07.06.99.18,1.97.18,2.96,0,.59-.02,1.24.1,1.84-.4,0-.81,0-1.21,0ZM47.58,34.6c-.04.49-.09.98-.14,1.47-.05.47-.04.95-.07,1.42-.07.97-.11,1.95-.16,2.92-.09,1.5-.14,3-.23,4.49-.09,1.5-.3,2.99-.47,4.48-.18,1.6-.35,3.21-.51,4.82-.08.81-.17,1.62-.22,2.43-.05.77-.09,1.53-.17,2.3-.07.48-.14.96-.23,1.43-.05.26-.09.52-.13.79-.74.08-1.48.16-2.21.24-.68.07-1.38.09-2.07.1-.61-.06-1.23-.12-1.84-.19-.33-.05-.65-.13-.97-.24,0,0-.02,0-.03-.02-.1-.31-.16-.64-.22-.96-.06-.6-.03-1.21-.05-1.81-.02-.73-.02-1.46-.02-2.2,0-.74-.03-1.47.02-2.2.05-.75.1-1.5.12-2.25.02-.72.02-1.45.07-2.17.05-.77.08-1.53.07-2.3,0-.69.03-1.37.01-2.06-.03-.91-.18-1.92-.91-2.56-.5-.44-.99-.6-1.63-.65-.04,0-.08,0-.12,0-.37-.07-.73-.14-1.1-.2-.64-.1-1.29-.16-1.94-.25-.97-.12-1.94-.2-2.91-.25-.91-.04-1.82-.05-2.73-.05-.12,0-.24,0-.36,0-1.46,0-2.9-.04-4.31.41-.37.12-.76.26-1.07.5-.13.1-.26.2-.39.3-.13.16-.25.32-.38.49-.14.18-.2.42-.26.64-.08.27-.08.58-.08.87,0,.24-.04.47-.05.71-.05.91.04,1.82.06,2.73.01.45.01.91.04,1.36.03.51.09,1.02.08,1.52-.02,1.09-.13,2.18-.22,3.26-.11,1.36-.23,2.73-.35,4.09-.06.71-.07,1.43-.09,2.14-.01.42-.01.84-.01,1.26-.44-.01-.88-.02-1.32-.04-.68-.02-1.35-.02-2.03-.06-.7-.04-1.39-.11-2.08-.18-.38-.06-.76-.14-1.13-.25-.03-.65,0-1.29.02-1.94.02-.87.02-1.73,0-2.59-.02-.8-.06-1.59-.12-2.38-.06-.84-.03-1.68-.04-2.52,0-.79-.04-1.58-.09-2.36-.05-.76-.15-1.52-.19-2.28-.09-1.67-.27-3.33-.49-4.98-.08-.65-.13-1.3-.22-1.95-.1-.77-.22-1.54-.34-2.31-.05-.41-.09-.82-.13-1.23-.05-.54-.03-1.1-.05-1.65-.02-1.06-.02-2.13-.15-3.18.33-.02.65-.03.97-.05.97-.06,1.93-.16,2.9-.21.96-.05,1.92.01,2.88.02.95,0,1.89,0,2.84.01.93,0,1.85,0,2.78,0,.97-.01,1.93-.08,2.9-.16,1.84-.15,3.69-.18,5.53-.29.94-.06,1.87-.14,2.8-.24.92-.09,1.84-.14,2.76-.25.5-.06.99-.1,1.49-.15.48-.04.97-.04,1.45-.06.91-.04,1.82-.07,2.73-.15.91-.08,1.82-.2,2.73-.24.47-.03.94-.05,1.41-.07.08,0,.16,0,.25,0,0,.3.03.6.04.9.01.42.04.83.05,1.25.03.92.06,1.84,0,2.76ZM50.84,25.92c-1.11.05-2.24.01-3.36.12-1.23.12-2.43.32-3.64.53-.35.04-.7.08-1.05.1-.44.02-.88.03-1.33.04-.94.02-1.89.08-2.83.16-.95.08-1.88.14-2.84.15-.92.01-1.83.09-2.75.11-.42.01-.85,0-1.27.03-.55.05-1.09.1-1.63.16-.94.12-1.87.2-2.81.24-.9.04-1.8.02-2.69.1-.94.09-1.88.17-2.82.19-1.51.03-3.01,0-4.52.04-1.55.04-3.09.15-4.64.25-.37.02-.74.07-1.11.09-.3.02-.6.02-.9.03.53-.46,1.06-.91,1.61-1.35,1.05-.78,2.1-1.55,3.13-2.36.45-.33.92-.64,1.38-.96.44-.3.86-.63,1.28-.95.83-.61,1.67-1.22,2.49-1.86-.08.06-.15.12-.23.18.61-.45,1.21-.89,1.84-1.32.67-.46,1.37-.88,2.02-1.36,1.2-.89,2.37-1.81,3.55-2.72.61-.4,1.22-.78,1.78-1.25.39-.33.79-.66,1.19-.99.44-.31.92-.6,1.4-.85.02,0,.03,0,.05,0,.26-.03.51-.03.76-.02.14.04.28.08.42.13.38.19.74.42,1.09.67.33.26.66.53.99.79.53.42,1.04.86,1.58,1.27.89.68,1.86,1.25,2.76,1.92-.02-.01-.03-.02-.05-.04,1.1.85,2.24,1.67,3.36,2.49,1.03.82,2.05,1.65,3.07,2.48,1.06.87,2.17,1.66,3.26,2.48.45.37.89.74,1.35,1.09.07.06.13.12.2.18-.03,0-.05,0-.08,0ZM6.52,27.47c.3-.35.6-.68.91-1.02.3-.33.58-.69.87-1.03,1.25-1.47,2.56-2.88,3.96-4.21.36-.34.71-.69,1.06-1.04.65-.5,1.3-1,1.94-1.5.75-.58,1.46-1.21,2.19-1.81.64-.53,1.31-1.03,1.97-1.54,0,0-.01,0-.02.02,1.1-.83,2.19-1.67,3.28-2.52.49-.38.96-.79,1.44-1.18.51-.42,1.03-.83,1.56-1.23.22-.17.44-.34.66-.51.53-.4,1.06-.8,1.59-1.21.86-.65,1.7-1.31,2.59-1.91.79-.53,1.61-1.07,2.47-1.49.08-.03.17-.05.25-.08.32-.01.64,0,.96,0,.06.01.12.03.17.05.31.16.59.36.88.55.4.32.81.65,1.23.94.35.24.69.49,1.03.74,1.27,1.05,2.38,2.25,3.59,3.36,1.29,1.19,2.44,2.52,3.72,3.72.63.59,1.3,1.16,1.91,1.77.6.61,1.13,1.3,1.7,1.94.6.66,1.17,1.35,1.77,2.02.57.64,1.16,1.24,1.71,1.89.33.44.66.89,1.01,1.31.4.49.83.96,1.25,1.43.24.27.47.55.71.83-.25,0-.5.02-.76.02-.2,0-.41.02-.61.02-.3-.37-.61-.74-.93-1.09-.71-.75-1.49-1.44-2.25-2.15-.72-.67-1.45-1.31-2.14-2.01-.74-.75-1.47-1.51-2.23-2.25-1.48-1.44-3.03-2.81-4.57-4.18-.74-.67-1.54-1.27-2.27-1.95-.78-.73-1.58-1.44-2.38-2.15-1.13-1-2.58-2.02-4.13-2.02-.31,0-.62.04-.93.13-.49.14-.88.42-1.26.74-.15.13-.27.28-.42.41-.11.08-.22.17-.33.25-1.68,1.22-3.44,2.35-4.98,3.76-.71.65-1.49,1.2-2.2,1.85-.75.68-1.55,1.28-2.33,1.91-1.55,1.24-3.04,2.54-4.53,3.85-.39.35-.8.68-1.21,1.01-.42.34-.81.7-1.21,1.06-.8.71-1.62,1.4-2.44,2.09-.68.58-1.3,1.21-1.93,1.84-.41.41-.78.84-1.14,1.29-.58,0-1.16-.03-1.75-.07.18-.23.37-.45.56-.67Z"/>
    </g>
  </g>
</svg>