<?xml version="1.0" encoding="UTF-8"?>
<svg id="Layer_2" data-name="Layer 2" xmlns="http://www.w3.org/2000/svg" viewBox="0 0 59.49 57.15">
  <defs>
    <style>
      .cls-1 {
        fill: #d96038;
      }
    </style>
  </defs>
  <g id="Layer_1-2" data-name="Layer 1">
    <g>
      <path class="cls-1" d="M44.64,57.15H14.85c-3.34,0-6.06-2.72-6.06-6.06v-16.31l-3.2,3.2-3.73-3.73c-1.2-1.2-1.86-2.8-1.86-4.5s.66-3.3,1.86-4.5L25.24,1.86c1.2-1.2,2.8-1.86,4.5-1.86h.02c1.7,0,3.3.66,4.5,1.86l3.71,3.71h0s19.67,19.68,19.67,19.68c1.2,1.2,1.86,2.8,1.86,4.5s-.66,3.3-1.86,4.5l-3.73,3.73-3.2-3.2v16.31c0,3.34-2.72,6.06-6.06,6.06ZM11.79,27.54v23.55c0,1.69,1.37,3.06,3.06,3.06h29.79c1.69,0,3.06-1.37,3.06-3.06v-23.55l6.2,6.2,1.6-1.6c.64-.64.99-1.48.99-2.38s-.35-1.74-.99-2.38h0S33.75,5.62,33.75,5.62h0s-1.62-1.63-1.62-1.63c-.63-.63-1.48-.98-2.38-.98,0,0,0,0,0,0-.91,0-1.75.35-2.38.98l-1.57,1.57h0s-1.09,1.1-1.09,1.1L3.99,27.37c-.64.64-.99,1.48-.99,2.38s.35,1.74.99,2.38l1.61,1.6,6.2-6.2Z"/>
      <path class="cls-1" d="M38.91,57.09h-18.33v-20.29c0-2.55,2.07-4.62,4.62-4.62h9.1c2.55,0,4.62,2.07,4.62,4.62v20.29ZM23.58,54.09h12.33v-17.29c0-.89-.73-1.62-1.62-1.62h-9.1c-.89,0-1.62.73-1.62,1.62v17.29Z"/>
    </g>
  </g>
</svg>