<?xml version="1.0" encoding="UTF-8"?>
<svg id="Layer_2" data-name="Layer 2" xmlns="http://www.w3.org/2000/svg" viewBox="0 0 59.49 57.15">
  <defs>
    <style>
      .cls-1 {
        fill: none;
        stroke: #d96038;
        stroke-miterlimit: 10;
        stroke-width: 3px;
      }
    </style>
  </defs>
  <g id="Layer_1-2" data-name="Layer 1">
    <g>
      <path class="cls-1" d="M56.56,26.31L35.85,5.6h0s-2.67-2.67-2.67-2.67c-.95-.95-2.2-1.42-3.45-1.42-1.25,0-2.5.47-3.45,1.42l-2.66,2.67h0S2.92,26.31,2.92,26.31c-1.9,1.9-1.9,4.98,0,6.88l2.67,2.66,4.7-4.7v19.93c0,2.52,2.04,4.56,4.56,4.56h29.79c2.52,0,4.56-2.04,4.56-4.56v-19.93l4.7,4.7,2.67-2.66c1.9-1.9,1.9-4.98,0-6.88Z"/>
      <path class="cls-1" d="M25.2,33.69h9.1c1.72,0,3.12,1.4,3.12,3.12v18.79h-15.33v-18.79c0-1.72,1.4-3.12,3.12-3.12Z"/>
    </g>
  </g>
</svg>