<?xml version="1.0" encoding="UTF-8"?>
<svg id="Layer_2" data-name="Layer 2" xmlns="http://www.w3.org/2000/svg" viewBox="0 0 37.05 37.82">
  <defs>
    <style>
      .cls-1 {
        fill: #fff;
      }
    </style>
  </defs>
  <g id="Layer_1-2" data-name="Layer 1">
    <g>
      <path class="cls-1" d="M13.69,37.82c-.54,0-1.08-.24-1.45-.7-.63-.8-.5-1.96.3-2.59l19.7-15.62L12.54,3.29c-.8-.63-.93-1.79-.3-2.59.63-.8,1.79-.93,2.59-.3l21.52,17.07c.44.35.7.88.7,1.44s-.26,1.09-.7,1.44l-21.52,17.07c-.34.27-.74.4-1.14.4Z"/>
      <path class="cls-1" d="M1.84,37.82c-.54,0-1.08-.24-1.45-.7-.63-.8-.5-1.96.3-2.59l19.7-15.62L.7,3.29C-.1,2.65-.23,1.5.4.7,1.03-.1,2.19-.23,2.99.4l21.52,17.07c.44.35.7.88.7,1.44s-.26,1.09-.7,1.44L2.99,37.43c-.34.27-.74.4-1.14.4Z"/>
    </g>
  </g>
</svg>