<?xml version="1.0" encoding="UTF-8"?>
<svg id="Layer_2" data-name="Layer 2" xmlns="http://www.w3.org/2000/svg" viewBox="0 0 83.49 36.09">
  <defs>
    <style>
      .cls-1 {
        fill: #eb5529;
        fill-rule: evenodd;
      }
    </style>
  </defs>
  <g id="Layer_1-2" data-name="Layer 1">
    <path class="cls-1" d="M46.2.59c-.63.88-.52,1.6.39,2.81.47.61.83,1.24.83,1.46,0,.19.8.96,1.76,1.74,1.74,1.35,2.84,2.65,2.54,2.95-.08.11-5.84.19-12.76.25-12.21.06-14.08.14-21.17,1.05-1.82.22-5.84.47-8.96.55-5.98.14-7.14.33-8.19,1.32-.69.66-.85,2.04-.33,3.03.22.39.22.63,0,.85-.52.52-.36,1.98.28,2.56.44.39.94.5,1.96.47,1.16-.06,1.32,0,1.21.41-.08.25.03.8.22,1.21.39.74.39.77-.69,1.05-1.41.39-1.93,1.35-1.35,2.43.63,1.1,3.22,1.71,7.44,1.71,3.36,0,15.3-.69,16.95-.96.47-.08,4.6-.25,9.23-.41,8.05-.25,14.86-.63,17.75-.99l1.38-.17-.52.77c-.3.44-1.49,2.54-2.7,4.66-1.82,3.25-2.12,4-2.01,4.8.19,1.19.88,1.96,1.79,1.96,1.07,0,6.37-3.39,11.47-7.33,2.4-1.85,4.13-2.89,8.41-5.02,2.95-1.46,6.42-3.25,7.72-4,1.3-.74,2.84-1.63,3.45-1.96.94-.5,1.1-.74,1.19-1.6.08-.91-.03-1.07-.96-1.71-.58-.39-1.13-.72-1.24-.72-.14,0-2.01-.85-4.16-1.9-2.18-1.05-4.66-2.12-5.54-2.37-1.98-.58-7.17-2.54-8.43-3.17-.52-.28-2.01-.94-3.31-1.46-1.3-.52-3.39-1.43-4.69-1.98C48.02-.24,46.95-.51,46.2.59h0Z"/>
  </g>
</svg>