<?xml version="1.0" encoding="UTF-8"?>
<svg id="Layer_2" data-name="Layer 2" xmlns="http://www.w3.org/2000/svg" viewBox="0 0 295.13 184.16">
  <defs>
    <style>
      .cls-1 {
        fill: #ee3c23;
        stroke: #ee3c23;
        stroke-linecap: round;
        stroke-linejoin: round;
        stroke-width: 3.53px;
      }

      .cls-2 {
        fill: #fdeaac;
      }
    </style>
  </defs>
  <g id="Layer_1-2" data-name="Layer 1">
    <g>
      <path class="cls-2" d="M264.95,149c-5.43-9.66-21.76-7.93-32.07-7.22-3.29-4.83-7.47-8.91-12.3-12.13.13-.39.24-.79.31-1.21,1.35-7.07,8.74-12.44,11.82-19.08,4.38-9.44,5.69-19.96,3.38-30.15-4.12-18.2-19.85-31.62-37.96-34.55-10.23-1.66-20.68-1.77-30.07,3.2-7.43,3.93-13.06,10.66-18.26,17.08-4.31,5.31-7.98,8.13-14.4,11.02-7.89,3.55-18.2,2.51-26.63,3.96-20.49,3.53-36.47,22.47-49.57,37.42-1.48,1.69-2.44,3.46-2.97,5.24-4.77-.26-9.57-3.84-13.89-1.92-.7-.31-1.45-.57-2.27-.77-9.74-2.37-20.44.67-28.35,7.97-7.83,7.23-8.91,18.69-2.24,27.09,5.69,7.18,15.44,10.88,24.03,13.3,9.28,2.62,19.06,3.59,28.65,4.27,41.1,2.93,82.4,3.02,123.59,3.3,23,.15,44.76-2.49,67.22-7.42,7.96-1.75,15.72-12.77,11.99-19.39Z"/>
      <g>
        <path class="cls-1" d="M57.73,134.97c2.46-5.09.57-10.53-3.63-14.06-4.88-4.11-12.06-5.45-18.29-5.46-12.7,0-26.89,6.27-32.28,18.42-5.46,12.3,2.59,23.82,12.85,30.31,12.46,7.88,27.33,10.67,41.69,12.74,32.78,4.73,65.96,6.01,99.04,5.29,16.78-.36,33.61-1.02,50.33-2.56,14.92-1.37,30.8-2.9,44.7-8.84,6.47-2.77,13.79-6.79,16.7-13.59,2.62-6.11.08-12.99-4.92-17.06-11.82-9.62-31.88-3.9-42.23,5.16-2.42,2.12.71,6.07,3.42,4.43,9.12-5.53,24.12-12.18,34.28-5.45,5.22,3.46,6.21,9.68,1.86,14.25-4.04,4.25-10.03,6.87-15.47,8.73-12.46,4.27-26,5.66-39.06,6.81-13.38,1.18-26.83,1.78-40.25,2.2-27.08.85-54.23.52-81.22-1.89-13.3-1.19-26.68-2.68-39.79-5.3-11.27-2.25-23.57-5.74-31.91-14.1-4.46-4.47-7.51-10.6-5.71-16.98,1.74-6.14,6.9-10.85,12.44-13.65,6.2-3.13,13.29-4.2,20.16-3.4,6.23.72,17.43,4.2,14.1,12.67-.72,1.83,2.33,3.11,3.18,1.34h0Z"/>
        <path class="cls-1" d="M57.28,134.75c3.42-22.58,19.96-40.96,40.79-49.4,18.47-7.48,51.78-12.98,62.77,9.17,6.7,13.5-4.19,24.89-13.49,33.32-2.15,1.95.72,5.8,3.15,4.08,10.04-7.12,19.01-18.96,17.34-31.95-1.54-12-11.74-20.83-22.84-24.15-12.77-3.82-27.46-1.71-40,2.04-12.44,3.72-24.27,10.17-33.41,19.47-9.94,10.12-16.21,22.81-17.29,37.01-.13,1.69,2.73,2.11,2.99.4h0Z"/>
        <path class="cls-1" d="M150.53,131.64c13.89-8.78,31.39-15.07,48.02-12.57,7.69,1.15,16.11,4.41,21.29,10.44,2.35,2.74,3.82,6.11,3.94,9.74.11,3.49-1.65,6.49-2.19,9.85-.16.99.59,1.96,1.67,1.67,7.54-2.07,6.79-13.24,4.27-18.9-3.7-8.3-12.4-13.2-20.76-15.68-19.15-5.68-42.12,1.4-57.6,13.12-1.35,1.02-.15,3.3,1.37,2.34h0Z"/>
        <path class="cls-1" d="M144.21,78.09c5.8-11.66,15.91-23.9,28.22-28.9,7.26-2.95,15.53-3.6,23.27-2.97,22.18,1.81,41.61,18.48,42.6,41.55.58,13.62-5.04,27.93-15.99,36.37-2.5,1.92-.04,6.24,2.51,4.29,22.11-16.87,24.44-50.25,6.18-70.79-13.91-15.64-38.21-20.35-57.74-13.78-14.85,5-26.93,18.47-31.16,33.33-.35,1.24,1.52,2.1,2.12.89h0Z"/>
        <path class="cls-1" d="M116.29,39.22c4.42,2,8.75,4.19,12.95,6.63,3.86,2.24,7.62,5.09,11.89,6.5,1.34.44,1.94-1.22,1.24-2.12-2.77-3.57-7.06-5.92-10.93-8.13-4.22-2.4-8.58-4.55-13.02-6.5-2.44-1.07-4.59,2.51-2.12,3.63h0Z"/>
        <path class="cls-1" d="M227.61,3.31c-2.18,6.26-5.16,13.07-5.3,19.79-.03,1.31,1.71,1.66,2.37.64,3.64-5.65,4.97-13,6.66-19.41.64-2.43-2.92-3.36-3.73-1.03h0Z"/>
        <path class="cls-1" d="M287.19,48.41c-7.22,2.22-15.22,3.91-21.79,7.74-.95.56-.59,2.24.59,2.16,7.58-.49,15.14-3.51,22.37-5.7,2.68-.81,1.53-5.04-1.16-4.21h0Z"/>
        <path class="cls-1" d="M266.87,117.12c4.4,2.29,8.81,4.55,13.3,6.66,3.8,1.79,7.88,3.86,12.13,4.07.94.05,1.41-1.21.76-1.84-3.08-3.01-7.38-4.68-11.23-6.47-4.29-1.99-8.55-4.03-12.78-6.14-2.47-1.23-4.65,2.43-2.18,3.72h0Z"/>
        <path class="cls-1" d="M155.47,4.89c3.21,6.17,5.48,12.77,8.92,18.81.57,1,2.48.64,2.32-.63-.96-7.25-4.26-13.85-7.66-20.27-1.25-2.36-4.81-.27-3.58,2.09h0Z"/>
      </g>
    </g>
  </g>
</svg>